<svg xmlns="http://www.w3.org/2000/svg" viewBox="0 0 1600 1000" role="img" aria-label="Familiar premium azul oscuro">
  <rect width="1600" height="1000" fill="#07090c"/><path d="M0 0h1600v1000H0z" fill="none"/><circle cx="1280" cy="250" r="310" fill="#1e3350" opacity="0.7"/><circle cx="1290" cy="250" r="190" fill="#d4af39" opacity="0.1"/>
  <path d="M114 672c42-109 128-176 259-201l327-62c198-38 361 3 487 122l130 123 151 31c38 8 65 42 65 81v52H85v-58c0-38 11-68 29-88z" fill="#141923" stroke="#384050" stroke-width="8"/>
  <path d="M422 486h356c141 0 254 41 340 122l47 44H270c32-78 83-133 152-166z" fill="#090c12" stroke="#d4af39" stroke-opacity="0.26" stroke-width="6"/>
  <circle cx="430" cy="816" r="101" fill="#050506" stroke="#d4af39" stroke-width="10"/><circle cx="430" cy="816" r="43" fill="#283245"/>
  <circle cx="1192" cy="816" r="101" fill="#050506" stroke="#d4af39" stroke-width="10"/><circle cx="1192" cy="816" r="43" fill="#283245"/>
</svg>
