<svg xmlns="http://www.w3.org/2000/svg" viewBox="0 0 1600 1000" role="img" aria-label="SUV premium oscuro">
  <defs>
    <linearGradient id="bg" x1="0" y1="0" x2="1" y2="1"><stop offset="0" stop-color="#24211b"/><stop offset="0.55" stop-color="#0f1013"/><stop offset="1" stop-color="#050506"/></linearGradient>
    <linearGradient id="gold" x1="0" x2="1"><stop offset="0" stop-color="#b98c24"/><stop offset="1" stop-color="#f0d26a"/></linearGradient>
  </defs>
  <rect width="1600" height="1000" fill="url(#bg)"/>
  <circle cx="1240" cy="210" r="250" fill="#d4af39" opacity="0.14"/>
  <path d="M190 672c38-136 149-215 323-235l234-28c132-16 276 26 361 105l138 128 155 31c42 8 73 45 73 88v47H133v-53c0-40 22-72 57-83z" fill="#1b1c20" stroke="#4e4630" stroke-width="8"/>
  <path d="M501 454h224c119 0 215 30 288 91l86 72H346c31-83 78-137 155-163z" fill="#0b0c0f" stroke="#d4af39" stroke-opacity="0.32" stroke-width="6"/>
  <circle cx="415" cy="809" r="103" fill="#070708" stroke="#d4af39" stroke-width="12"/><circle cx="415" cy="809" r="44" fill="#2b2c31"/>
  <circle cx="1164" cy="809" r="103" fill="#070708" stroke="#d4af39" stroke-width="12"/><circle cx="1164" cy="809" r="44" fill="#2b2c31"/>
  <rect x="938" y="632" width="208" height="14" rx="7" fill="url(#gold)"/>
</svg>
