<svg xmlns="http://www.w3.org/2000/svg" viewBox="0 0 1600 1000" role="img" aria-label="Familiar premium azul en estudio">
  <defs>
    <linearGradient id="bg" x1="0" y1="0" x2="1" y2="1"><stop offset="0" stop-color="#102033"/><stop offset="0.52" stop-color="#090b10"/><stop offset="1" stop-color="#050506"/></linearGradient>
    <linearGradient id="body" x1="0" x2="1"><stop offset="0" stop-color="#101b2b"/><stop offset="0.5" stop-color="#27466b"/><stop offset="1" stop-color="#0d1421"/></linearGradient>
    <linearGradient id="glass" x1="0" x2="1"><stop offset="0" stop-color="#05080d"/><stop offset="1" stop-color="#1f3859"/></linearGradient>
  </defs>
  <rect width="1600" height="1000" fill="url(#bg)"/>
  <rect y="705" width="1600" height="295" fill="#060708"/>
  <circle cx="1265" cy="230" r="340" fill="#d4af39" opacity="0.09"/>
  <path d="M113 700c54-130 162-211 325-243l310-60c175-34 331 6 466 120l137 116 125 34c36 10 61 42 61 79v78H76v-55c0-30 13-53 37-69z" fill="url(#body)" stroke="#3f5470" stroke-width="8"/>
  <path d="M429 477h349c148 0 273 42 376 125l57 46H281c32-82 81-139 148-171z" fill="url(#glass)" stroke="#d4af39" stroke-opacity="0.22" stroke-width="6"/>
  <path d="M230 692h1015" stroke="#d4af39" stroke-width="7" stroke-linecap="round" opacity="0.5"/>
  <circle cx="428" cy="817" r="102" fill="#050506" stroke="#0e1117" stroke-width="24"/><circle cx="428" cy="817" r="66" fill="none" stroke="#cbd5e1" stroke-width="9"/><circle cx="428" cy="817" r="32" fill="#2e4770"/>
  <circle cx="1190" cy="817" r="102" fill="#050506" stroke="#0e1117" stroke-width="24"/><circle cx="1190" cy="817" r="66" fill="none" stroke="#cbd5e1" stroke-width="9"/><circle cx="1190" cy="817" r="32" fill="#2e4770"/>
  <ellipse cx="805" cy="928" rx="610" ry="42" fill="#000" opacity="0.42"/>
</svg>
