<svg xmlns="http://www.w3.org/2000/svg" viewBox="0 0 1800 1100" role="img" aria-label="Showroom premium oscuro">
  <defs><linearGradient id="bg" x1="0" y1="0" x2="1" y2="1"><stop offset="0" stop-color="#262014"/><stop offset="0.45" stop-color="#0c0d10"/><stop offset="1" stop-color="#050506"/></linearGradient></defs>
  <rect width="1800" height="1100" fill="url(#bg)"/><path d="M0 740h1800v360H0z" fill="#050506"/><path d="M1180 0h620v1100h-620z" fill="#d4af39" opacity="0.08"/><circle cx="1370" cy="260" r="330" fill="#d4af39" opacity="0.13"/>
  <path d="M480 695c73-110 174-173 303-190l278-36c172-22 329 16 469 114l155 108 95 19c39 8 67 43 67 83v31H420v-55c0-31 20-60 60-74z" fill="#191b20" stroke="#4f4632" stroke-width="8"/>
  <path d="M790 524c116-34 239-39 370-16 98 18 187 54 267 108l67 45H635c37-68 89-114 155-137z" fill="#08090c" stroke="#d4af39" stroke-opacity="0.28" stroke-width="6"/>
  <circle cx="783" cy="815" r="92" fill="#050506" stroke="#d4af39" stroke-width="11"/><circle cx="1530" cy="815" r="92" fill="#050506" stroke="#d4af39" stroke-width="11"/>
</svg>
